<svg xmlns="http://www.w3.org/2000/svg" width="1536" height="1792" viewBox="0 0 1536 1792">
    <path d="M563.796 1658.897c-29.726-9.878-42.68-19.367-86.788-63.576l-44.504-44.608-21.693-12.885c-30.963-18.378-62.934-30.535-103.728-39.378-59.957-13.01-95.083-34.338-116.399-70.68l-9.399-16.025-13.196-52.354-13.196-52.353-15.567-29.884c-18.063-34.68-41.828-64.303-77.718-96.872-31.418-28.51-47.298-52.664-55.396-84.248L0 1071.804l2.668-19.813c1.467-10.897 7.686-35.369 13.82-54.381 6.134-19.013 13.172-49.704 15.638-68.203l4.486-33.635-4.312-31.659c-2.371-17.412-9.85-48.942-16.619-70.07L3.374 755.637l-.319-28.807-.318-28.807 12.2-25.937 12.202-25.938 37.072-35.515c65.76-63 87.186-100.271 105.285-183.128 8.96-41.021 22.065-68.14 43.068-89.128 20.021-20.006 45.034-31.253 96.342-43.323 74.781-17.591 114.577-40.963 172.686-101.411l36.99-38.483 18.9-9.57c10.395-5.263 28.669-11.374 40.607-13.58l21.708-4.01 22.63 3.642c12.448 2.003 32.88 7.222 45.407 11.598 71.24 24.89 126.677 24.743 207.825-.547l37.9-11.811 27.312-.318 27.313-.317 25.625 11.982 25.626 11.983 43.16 43.558 43.16 43.56 23.566 14.215c30.104 18.16 65.345 31.368 109.223 40.937l34.772 7.583 23.18 12.346c38.71 20.616 62.477 55.142 72.331 105.073 10.548 53.457 29.709 99.455 56.122 134.732 7.783 10.395 31.012 35.32 51.62 55.387l37.466 36.49 10.969 23.045 10.968 23.045-.05 32.647-.048 32.647-12.236 37.319c-6.73 20.526-13.857 51.636-15.837 69.136l-3.6 31.817 3.42 30.331c1.882 16.681 9.037 47.793 15.9 69.136l12.48 38.806v61.456l-10.453 22.585-10.453 22.585-45.323 46.552c-63.43 65.15-81.624 96.75-97.432 169.24-4.172 19.133-11.934 44.484-17.25 56.338l-9.663 21.549-17.974 17.63c-22.093 21.67-49.564 34.487-95.074 44.362-72.474 15.723-104.152 33.929-169.373 97.33l-46.588 45.287-22.603 10.538-22.603 10.54-30.752.04-30.753.04-42.284-13.444-42.284-13.443-57.659.132-57.659.131-36.518 12.53-36.518 12.529-28.83 1.735-28.83 1.736-15.375-5.11zm337.362-113.605c88.077-19.25 167.058-52.44 239.642-100.7l41.872-27.84 54.05-54.008 54.049-54.007 27.862-41.839c48.604-72.985 81.83-152.004 101.102-240.467l8.787-40.33V805.598l-8.777-40.33c-12.271-56.386-35.062-122.668-57.641-167.623-101.356-201.818-297.376-337.213-524.264-362.16-155.915-17.14-322.515 26.247-452.766 117.921l-36.518 25.698-48.125 48.087-48.125 48.087-25.718 36.49C134.84 641.94 91.42 808.39 108.575 964.178c21.733 197.39 126.54 371.522 289.793 481.506 77.476 52.192 159.562 84.675 261.55 103.494l38.438 7.094 82.645-1.381 82.645-1.381zm-210.51-52.87c-59.042-7.403-133.913-30.707-192.206-59.831-183.7-91.778-307.783-271.879-328.857-477.242l-4.728-46.09 2.405-44.712c4.628-86.026 24.382-159.843 64.097-239.517 29.813-59.806 64.762-108.023 112.936-155.801 49.806-49.395 95.483-82.034 157.983-112.877 78.35-38.667 150.36-57.642 236.271-62.254l44.334-2.382 45.398 4.678c258.462 26.631 468.161 211.255 528.098 464.942l9.54 40.384 2.061 72.985 2.061 72.985-6.58 42.242c-13.299 85.357-53.16 182.355-104.96 255.407-33.064 46.63-92.606 106.121-139.272 139.162-71.607 50.698-161.95 88.607-245.425 102.988l-43.625 7.515-64.004-.575c-35.2-.317-69.194-1.226-75.536-2.02zm256.28-226.533l7.029-6.357v-132.05l-6.858-6.201-6.858-6.202-36.385-1.115-36.386-1.116-1.922-184.737-1.922-184.738-5.276-6.348-5.275-6.347H606.687l-7.03 6.356-7.029 6.357v132.05l6.858 6.202 6.858 6.201 36.385 1.115 36.386 1.116v222.774l-36.386 1.115-36.385 1.116-6.858 6.201-6.858 6.202v130.713l6.362 7.024 6.361 7.024h334.537zm-90.764-632.856l7.461-5.452V491.912l-7.461-5.451-7.462-5.452H697.884l-7.462 5.452-7.461 5.451v135.669l7.461 5.452 7.462 5.451h150.818z"/>
</svg>
