<svg xmlns="http://www.w3.org/2000/svg" width="1536" height="1792" viewBox="0 0 1536 1792">
    <path d="M614.213 1653.89c-247.484-33.62-480.577-232.331-578.86-493.475-33.741-89.65-45.121-266.552-26.31-408.962C42.853 495.501 237.228 264.4 502.79 164.413 555.616 144.523 675.496 128 766.973 128c91.478 0 211.358 16.523 264.185 36.413 219.72 82.726 384.726 247.764 467.436 467.529C1518.48 684.779 1535 804.682 1535 896.178c0 184.562-39.32 315.444-135.865 452.243-86.984 123.253-218.731 223.33-367.977 279.523-88.21 33.211-276.994 44.96-416.945 25.947zM504.1 923.496v-310.73h-68.28v621.46h68.28zm494.783 300.262c120.634-31.428 210.03-129.114 230.34-251.7 20.768-125.362-43.517-260.156-151.535-317.74-63.182-33.683-113.702-41.298-274.868-41.433l-141.679-.119v621.46H809.92c111.64 0 158.81-2.613 188.963-10.469zm-257.514-54.913c-2.817-2.853-5.121-113.714-5.121-246.357v-241.17l17.818-4.472c9.8-2.46 59.729-2.895 110.953-.966 103.892 3.912 149.764 15.893 200.421 52.35 115.762 83.308 124.013 273.1 16.303 374.987-56.098 53.065-94.401 64.588-226.007 67.99-60.086 1.554-111.55.49-114.367-2.362zM502.58 506.524c18.604-13.032 20.784-53.801 3.875-72.488-16.668-18.423-59.984-16.842-73.66 2.689-34.251 48.909 20.886 104.057 69.785 69.8z"/>
</svg>
